<svg xmlns="http://www.w3.org/2000/svg" width="33.92" height="20.94" viewBox="0 0 33.92 20.94">
  <g id="XMLID_14_" transform="translate(-206.33 -2.03)">
    <path id="XMLID_15_" d="M239.04,22.96a1.208,1.208,0,0,0,1.21-1.21V3.25c0-.02-.01-.05-.01-.07,0-.04-.01-.09-.01-.13s-.02-.08-.03-.11-.02-.07-.03-.11l-.06-.12a.488.488,0,0,1-.03-.07c-.01-.01-.01-.02-.02-.03a.764.764,0,0,0-.08-.11c-.02-.03-.05-.06-.07-.09s-.06-.05-.09-.08-.06-.05-.09-.08-.07-.04-.1-.06-.07-.04-.1-.06a.487.487,0,0,0-.11-.04.451.451,0,0,0-.11-.03c-.04-.01-.07-.01-.11-.02a.57.57,0,0,0-.13-.01H207.5c-.04,0-.09.01-.13.01s-.07.01-.11.02a.358.358,0,0,0-.11.04.487.487,0,0,0-.11.04.88.88,0,0,0-.1.06c-.03.02-.07.04-.1.06a.647.647,0,0,0-.09.08.6.6,0,0,0-.08.08.55.55,0,0,0-.07.09,1.047,1.047,0,0,0-.08.11c-.01.01-.01.02-.02.03a.488.488,0,0,0-.03.07l-.06.12c-.01.04-.02.07-.03.11s-.02.08-.03.11a.571.571,0,0,0-.01.13c0,.02-.01.05-.01.07v18.5a1.208,1.208,0,0,0,1.21,1.21h31.5Zm-4.45-18.5-11.3,6.64L212,4.46Zm-25.83.91,13.92,8.18a1.179,1.179,0,0,0,1.22,0l13.92-8.18V20.55H208.74V5.37Z" fill="#f5f5f5"/>
  </g>
</svg>
