<svg xmlns="http://www.w3.org/2000/svg" width="23.263" height="23.27" viewBox="0 0 23.263 23.27">
  <g id="XMLID_19_" transform="translate(0.003)">
    <path id="XMLID_22_" d="M.1,7.85a17.433,17.433,0,0,0,5.11,10.2,17.433,17.433,0,0,0,10.2,5.11c.16.02.31.03.47.05h.08c.03,0,.05-.01.08-.01a.037.037,0,0,1,.03.01,3.879,3.879,0,0,0,.67.06,4.99,4.99,0,0,0,4.66-4.38c.02-.14.04-.28.06-.44a1,1,0,0,0-.83-1.08l-6.95-1.18a1,1,0,0,0-1.14.75,3.672,3.672,0,0,0-.09.43c-.02.12-.03.24-.04.35A16.309,16.309,0,0,1,8.5,14.81a16.454,16.454,0,0,1-2.93-3.96c.11-.01.22-.02.33-.04a3.672,3.672,0,0,0,.43-.09,1.01,1.01,0,0,0,.75-1.14L5.89,2.62a1.01,1.01,0,0,0-1.08-.83,2.921,2.921,0,0,0-.44.06A4.913,4.913,0,0,0,.03,7.03C.05,7.3.07,7.58.1,7.85ZM19.27,19.16a2.739,2.739,0,0,1-2.87,2.06,2.272,2.272,0,0,1-1.57-1.14,3.365,3.365,0,0,1-.46-1.75ZM7.07,16.22a18.267,18.267,0,0,0,5.56,3.83,4.681,4.681,0,0,0,.18.48,16.094,16.094,0,0,1-6.19-3.9,16.094,16.094,0,0,1-3.9-6.19c.16.07.33.13.5.19A18.574,18.574,0,0,0,7.07,16.22ZM4.09,3.98l.83,4.91a3.641,3.641,0,0,1-.74-.07.037.037,0,0,1-.03-.01,3.389,3.389,0,0,1-.99-.38A2.326,2.326,0,0,1,2.03,6.85c-.01-.18-.02-.36-.02-.53A2.929,2.929,0,0,1,4.09,3.98Z" fill="#f5f5f5"/>
    <path id="XMLID_21_" d="M11.75,6.43a5.087,5.087,0,0,1,5.08,5.08,1,1,0,0,0,2,0,7.087,7.087,0,0,0-7.08-7.08,1,1,0,0,0-1,1A.99.99,0,0,0,11.75,6.43Z" fill="#f5f5f5"/>
    <path id="XMLID_20_" d="M11.75,2a9.526,9.526,0,0,1,9.51,9.51,1,1,0,0,0,2,0A11.525,11.525,0,0,0,11.75,0a1,1,0,0,0,0,2Z" fill="#f5f5f5"/>
  </g>
</svg>
