<?xml version="1.0" encoding="utf-8"?>
<!-- Generator: Adobe Illustrator 24.1.0, SVG Export Plug-In . SVG Version: 6.00 Build 0)  -->
<svg version="1.1" id="Layer_1" xmlns="http://www.w3.org/2000/svg" xmlns:xlink="http://www.w3.org/1999/xlink" x="0px" y="0px"
	 viewBox="0 0 500 75" style="enable-background:new 0 0 500 75;" xml:space="preserve">
<style type="text/css">
	.st0{clip-path:url(#SVGID_2_);}
	.st1{clip-path:url(#SVGID_4_);fill:url(#SVGID_5_);}
</style>
<g>
	<g>
		<defs>
			<rect id="SVGID_1_" x="0" y="2.4" width="500" height="70.8"/>
		</defs>
		<clipPath id="SVGID_2_">
			<use xlink:href="#SVGID_1_"  style="overflow:visible;"/>
		</clipPath>
		<g class="st0">
			<defs>
				<path id="SVGID_3_" d="M321.8,18.6l-0.1-0.9c2-0.2,4-0.4,6.1-0.5c2.6-0.1,4.9-0.3,7.3-1.2c1.9-0.7,4.6-0.8,7-0.9
					c15.4-0.4,30.8-0.8,46.2-1.2c5.7-0.1,11.5,0,17.2-0.1c8.8-0.2,17.5-0.5,26.3-0.8c1.4,0,2.9,0,5.3,0
					c-37.6,4.6-74.7,4.5-111.5,5.8c-0.1,0-0.2,0-0.3,0C324.1,18.9,322.9,18.7,321.8,18.6 M90.6,17.5c-19.2-1.2-38.4-1.1-57.9-5.3
					c1.3,0,2,0,2.8,0c4.5,0.2,9.1,0.5,13.6,0.7c3,0.1,6,0,9,0.1c8,0.3,16,0.7,24,1.1c1.2,0.1,2.6,0.2,3.6,0.8c1.2,0.8,2.5,1,3.8,1.1
					c1.1,0.1,2.1,0.3,3.2,0.4l0,0.8c-0.6,0.1-1.2,0.2-1.8,0.2C90.7,17.5,90.7,17.5,90.6,17.5 M189.8,5.1c-0.1-0.5-0.3-1-0.4-1.4
					c1.2,0.2,2.5,0.5,3.7,0.9c0.2,0.1,0.3,0.3,0.7,0.6c-0.3,0-0.6,0-0.9,0C191.7,5.1,190.7,5.1,189.8,5.1 M179.9,2.4
					c-2.6,0.5-5.1,0.8-7.7,0.9c-0.5,0.1-1.1,0.2-1.6,0.4c-0.7-0.1-1.4-0.2-2.1-0.3c-2.1-0.1-4.2-0.2-6.2-0.3
					c-1.3-0.1-2.5-0.3-3.7-0.5c-0.1,0-0.3,0.1-0.4,0.1c-1.5-0.1-3-0.2-4.4-0.4h0C147.7,2.7,141.9,3,136,2.9c-1,1.8-2.1,3.7-3.1,5.6
					c-1.6,0.2-3.2,0.4-4.8,0.6c-5.7,0.8-11.3,2-17.1,2.5c-11.4,1-22.8,1-34.2,0.1C69.6,11.2,62.3,11,55,10.9
					c-5.9,0-11.8-0.2-17.7-0.2c-6.9,0-13.8,0.1-20.7,0.2c-0.5,0-1,0.4-1.5,0.5c0,0.2,0.1,0.3,0.1,0.5h14c0.7,3.1,3.5,2.2,5.6,3.7
					c-3.1,0.3-5.6,0.7-8.2,0.8c-6,0.3-12.1,0.3-18.1,0.6c-2.4,0.1-4.8,0.5-7.2,0.7c0.3,0.6,0.7,0.7,1,0.7c4.7,0.2,9.4,0.4,14.1,0.5
					c3.1,0.1,6.3,0.1,9.4,0.1c0.9,0,1.9,0.1,2.3,1.6c-2.1,0.6-4.2,0.8-6.3,0.6c-2.3-0.2-4.5-0.1-6.8-0.1c-1.9,0.1-3.9,0.5-5.8,0.6
					C7.5,22,5.7,22,4,22.6c0.1,0.6,0.1,1,0.1,1.6c-1.7,0.1-3.1,0.6-3.5,2.3c-0.4,1.4-0.5,3-0.5,4.5c0,0.6,0.6,1.4,1.1,1.7
					c0.6,0.4,1.3,0.5,2,0.6c8.7,1,17.3,2,26,2.7c2.5,0.2,3.6,1.5,4.6,4.1c-4.8-0.4-9.3-0.7-13.7-1.1c-4.4-0.4-8.8-1.1-13.2-1
					c1,1.3,2.3,1.4,3.5,1.7c1.3,0.3,2.8,0,4.1,1.6c-2.4,0.7-4.6,1.1-6.8,0.7c-0.8-0.1-1.6-0.3-2.3-0.2c-0.4,0-0.8,0.6-1.2,0.9
					c0.3,0.3,0.5,0.8,0.9,1c0.7,0.3,1.4,0.3,2.1,0.5c8.8,2,17.8,2.4,26.7,3.2c2.7,0.2,5.4,0.4,8,1.8c1.7,0.9,3.8,1.6,5.7,1.4
					c2.4-0.2,4.5,0.4,6.7,0.9c1.5,0.3,3,0.6,4.5,0.8c-2.1,0.3-4.1,0.5-6.1,0.3c-2.1-0.2-4.2-0.1-6.3,0.1c-2.3,0.3-3.7,2.3-5.8,2.9
					c0.5,0.3,0.9,0.4,1.4,0.4c5,0.4,10,0.8,15.1,1.2c6.7,0.6,13.5,0.7,20.2,1.9c5.2,1,10.4,1.7,15.6,2.4c2.3,0.3,4.7,0.5,7,0.1
					c3.7-0.5,7.4-0.1,11,0.2c0.4,0,0.9,0.2,1,0.4c1.1,1.7,2.2,0.9,3.6,0.3c-0.3-0.6-0.6-1.1-0.9-1.7c2.4,0.1,4.6,0.2,6.8,0.4
					c1.4,0.1,2.7,0.2,4.1,0.3c2.7,4.2,6.6,8.1,12.2,11.6c3.2-0.8,6.3-1.6,9.6-2.2c6.2-1.1,12.7-1.8,19.1-2.4
					c7.1-0.7,14.2-1.3,21.3-1.6c0.2,0.1,0.4,0.2,0.5,0.2c0.1-0.1,0.1-0.2,0.2-0.3c0.3,0,0.6,0,1,0c9.2-0.3,18.3-1.5,27.6-0.8
					c3.1,0.2,6.2,0.2,9.3,0.2c2.2,0,4.4,0,6.6,0c4.1,0.1,8.1,0.6,12.1,0.8c2.6,0.2,5.1,0.3,7.7,0.3c4.5-0.1,9-0.4,13.6-0.6
					c4.2-0.2,8.4-0.3,13-0.4c-0.7,0.7-1.1,1.2-1.8,1.9c2.6,0.6,4.8,1.5,6.9-0.3c0.3-0.3,1.3-0.4,2-0.5c7.1-0.4,14.1-0.9,21.3-0.3
					c4.4,0.4,9.1,0.2,13.5-0.1c10.1-0.7,20.1-1.6,30.1-2.6c12.9-1.4,25.9-1.5,38.9-2.1c9.7-0.4,19.3-0.9,29-1.3
					c0.9,0,1.7-0.2,2.6-0.5c-4.1-0.7-6.7-2.9-11.2-3.2c-4.1-0.2-8.1-0.3-12.2-0.1c-3.8,0.2-7.7,0-11.7-0.3c2.9-0.3,5.8-0.6,8.7-0.9
					c4.2-0.5,8.3-1.2,12.9-1c3.6,0.2,7.6-0.6,10.9-1.6c5-1.5,10.2-1.7,15.4-1.9c17.2-0.9,34.5-1.3,51.4-3.5c1.3-0.2,2.7-0.2,4-0.5
					c0.7-0.2,1.2-0.7,1.7-1.1c-0.8-0.3-1.5-0.9-2.3-1c-1.5-0.1-3,0.1-4.5,0.2c-4.2,0.4-8.3-0.1-13-0.8c2.6-1.7,5.5-1.4,8-1.7
					c2.5-0.3,5-0.4,6.8-1.8c-8.6-0.1-4.8-0.1-13.3,0.3c-2.9,0.1-3.2-0.2-3.5-0.5c-0.4-0.3-0.7-0.6-3.7-0.5c-4,0.2-4.5-0.3-0.5-0.8
					c9.7-1.2-1-1.5,9.1-1.8c10.2-0.3,2.5-1,19.2-2c1.3-0.1,2.8-0.2,3.9-0.6c1-0.4,2.2-1.2,2.2-1.9c0-1.6-0.2-3.4-1-4.9
					c-0.9-1.8-3.6-2.4-6.8-2.5c0.1-0.6,0.2-1.1,0.3-1.7c-3.3-0.7-6.8-0.6-10.2-0.7c-3.7-0.1-7.5-0.5-11.2-0.6
					c-4.4-0.1-8.8-0.1-13.1,0.1c-4.1,0.2-8,0-12.2-0.7c0.8-1.7,2.7-1.7,4.4-1.8c6.1-0.1,12.1-0.1,18.2-0.2
					c9.1-0.1,18.2-0.3,27.2-0.5c0.7,0,1.3-0.2,2-0.8c-4.6-0.3-9.2-0.7-13.8-0.8c-11.6-0.3-23.3-0.4-34.9-0.6
					c-5-0.1-9.9-0.5-15.8-0.9c3.9-1.6,9.4-0.7,10.8-4h27c0.1-0.2,0.2-0.4,0.3-0.6c-1-0.2-1.9-0.6-2.9-0.6
					c-13.3-0.1-26.6-0.3-39.9-0.3c-11.4,0-22.7,0.2-34.1,0.2c-14.1,0.1-28.1,0.3-42.2,0.9c-21.9,1-43.9,1-65.8-0.1
					c-11-0.5-21.9-1.8-32.8-2.7c-7.2-0.6-14.4-1.1-21.7-1.5c-9.7-0.5-19-2.4-28.2-4.1c-2.9-0.5-5.7-1.1-8.6-1.6
					c-1.9,0.2-3.8,0.3-5.7,0.4c0-0.1,0-0.1-0.1-0.2C186,2.9,183,2.7,179.9,2.4L179.9,2.4z"/>
			</defs>
			<clipPath id="SVGID_4_">
				<use xlink:href="#SVGID_3_"  style="overflow:visible;"/>
			</clipPath>
			
				<linearGradient id="SVGID_5_" gradientUnits="userSpaceOnUse" x1="-972.6563" y1="3167.3689" x2="-972.319" y2="3167.3689" gradientTransform="matrix(1482.4089 0 0 1482.4089 1441874.5 -4695298.5)">
				<stop  offset="0" style="stop-color:#89C340"/>
				<stop  offset="1" style="stop-color:#009146"/>
			</linearGradient>
			<rect x="0" y="2.4" class="st1" width="500" height="70.8"/>
		</g>
	</g>
</g>
</svg>
